<svg width="56" height="56" viewBox="0 0 56 56" fill="none" xmlns="http://www.w3.org/2000/svg">
<path d="M27.998 26.0289C28.5208 26.0289 29.0229 26.2363 29.3926 26.6061C29.7622 26.9758 29.9697 27.4777 29.9697 28.0006C29.9697 28.5236 29.7622 29.0254 29.3926 29.3951C29.0229 29.7649 28.5208 29.9723 27.998 29.9723C27.4755 29.9722 26.9741 29.7648 26.6045 29.3951C26.2348 29.0254 26.0273 28.5236 26.0273 28.0006C26.0273 27.4776 26.2348 26.9758 26.6045 26.6061C26.9741 26.2365 27.4755 26.029 27.998 26.0289Z" stroke="#FF0000" stroke-width="1.5"/>
<path d="M27.9979 14.3912C25.3066 14.3912 22.6758 15.1894 20.4381 16.6849C18.2004 18.1804 16.4563 20.306 15.4264 22.7929C14.3965 25.2797 14.1271 28.0162 14.6521 30.6563C15.1771 33.2964 16.4731 35.7214 18.3761 37.6248C20.2791 39.5282 22.7037 40.8244 25.3432 41.3495C27.9828 41.8747 30.7187 41.6052 33.2051 40.5751C35.6915 39.545 37.8167 37.8005 39.3119 35.5624C40.8071 33.3243 41.6051 30.6929 41.6051 28.0011" stroke="#FF0000" stroke-width="1.5" stroke-linecap="round" stroke-linejoin="round"/>
<path d="M30.7198 3.65275C25.6745 3.08661 20.5779 4.10264 16.1351 6.56029C11.6922 9.01795 8.1228 12.7958 5.92048 17.3712C3.71816 21.9466 2.9918 27.0934 3.84189 32.0997C4.69198 37.1061 7.0765 41.7245 10.6656 45.3161C14.2547 48.9077 18.871 51.295 23.8759 52.1478C28.8809 53.0006 34.0271 52.2767 38.6027 50.0762C43.1783 47.8758 46.9571 44.3075 49.4165 39.8651C51.876 35.4226 52.8944 30.3256 52.3309 25.2789" stroke="#FF0000" stroke-width="1.5" stroke-linecap="round" stroke-linejoin="round"/>
<path d="M36.1641 11.6691V19.8351H44.3284L52.4928 11.6691H44.3284V3.50317L36.1641 11.6691Z" stroke="#FF0000" stroke-width="1.5" stroke-linecap="round" stroke-linejoin="round"/>
<path d="M36.75 19.25L28 28" stroke="#FF0000" stroke-width="1.5" stroke-linecap="round" stroke-linejoin="round"/>
</svg>
