<svg width="26" height="73" viewBox="0 0 26 73" fill="none" xmlns="http://www.w3.org/2000/svg">
<path d="M20 8C20 11.866 16.866 15 13 15C9.13404 15 6 11.866 6 8C6 4.13404 9.13404 1 13 1C16.866 1 20 4.13404 20 8Z" stroke="#541FFF" stroke-width="2" stroke-miterlimit="10" stroke-linecap="round" stroke-linejoin="round"/>
<path d="M19.6667 20H6.33333C3.38773 20 1 22.4506 1 25.4737V41.8947C1 44.1619 2.79093 46 5 46H6.33333V69.2632C6.33333 70.7747 7.5272 72 9 72H17C18.4728 72 19.6667 70.7747 19.6667 69.2632V46H21C23.2091 46 25 44.1619 25 41.8947V25.4737C25 22.4506 22.6123 20 19.6667 20Z" stroke="#541FFF" stroke-width="2" stroke-miterlimit="10" stroke-linecap="round" stroke-linejoin="round"/>
<path d="M20 46.3409V33" stroke="#541FFF" stroke-width="2" stroke-miterlimit="10" stroke-linecap="round" stroke-linejoin="round"/>
<path d="M6 46.3409V33" stroke="#541FFF" stroke-width="2" stroke-miterlimit="10" stroke-linecap="round" stroke-linejoin="round"/>
<path d="M13.207 71.7074L13.207 48.3608" stroke="#541FFF" stroke-width="2" stroke-miterlimit="10" stroke-linecap="round" stroke-linejoin="round"/>
</svg>
