<svg width="16" height="44" viewBox="0 0 16 44" fill="none" xmlns="http://www.w3.org/2000/svg">
<path d="M13.4286 10.9389H2.57176C1.15147 10.9389 0 12.0704 0 13.466L0 24.3233C0 25.7612 1.18609 26.9267 2.64936 26.9267H3.40168V40.0284C3.40168 41.007 4.20892 41.8 5.2046 41.8H10.7954C11.7911 41.8 12.5983 41.0068 12.5983 40.0284V26.9267H13.3506C14.8139 26.9267 16 25.7612 16 24.3233V13.466C16.0002 12.0702 14.8489 10.9389 13.4286 10.9389Z" fill="#FF1E1E"/>
<path d="M8.00065 9.1194C10.5634 9.1194 12.641 7.07795 12.641 4.5597C12.641 2.04145 10.5634 0 8.00065 0C5.43789 0 3.36035 2.04145 3.36035 4.5597C3.36035 7.07795 5.43789 9.1194 8.00065 9.1194Z" fill="#FF1E1E"/>
</svg>
